<svg width="385" height="168" viewBox="0 0 385 168" fill="none" xmlns="http://www.w3.org/2000/svg">
<path fill-rule="evenodd" clip-rule="evenodd" d="M78.4219 78.4219H64.2031V59.1719H14.2188V78.4219H0V39.2109C0 33.4871 0.984375 28.2188 2.95312 23.4062C4.92188 18.5938 7.65625 14.4558 11.1562 10.9922C14.6562 7.52856 18.7943 4.83081 23.5703 2.89844C28.3464 0.966064 33.5599 0 39.2109 0H71.2578C72.2422 0 73.1719 0.182373 74.0469 0.546875C74.9219 0.911377 75.6875 1.42188 76.3438 2.07812C77 2.73438 77.5104 3.5 77.875 4.375C78.2396 5.25 78.4219 6.17969 78.4219 7.16406V78.4219ZM64.2031 44.9531V14.2188H39.2109C38.7734 14.2188 37.8438 14.2917 36.4219 14.4375C35.0365 14.5469 33.4141 14.8567 31.5547 15.3672C29.7318 15.8777 27.7995 16.6614 25.7578 17.7188C23.7161 18.7761 21.8385 20.2344 20.125 22.0938C18.4115 23.9531 16.9896 26.2864 15.8594 29.0938C14.7656 31.8645 14.2188 35.2371 14.2188 39.2109V44.9531H64.2031ZM103.72 78.4219H89.5016V0H103.72V78.4219ZM384.672 166.422H370.344V119.719L345.133 164.07C344.513 165.2 343.638 166.057 342.508 166.641C341.414 167.224 340.229 167.516 338.953 167.516C337.714 167.516 336.547 167.224 335.453 166.641C334.396 166.057 333.557 165.2 332.938 164.07L307.617 119.719V166.422H293.398V94.0703C293.398 92.4297 293.872 90.9714 294.82 89.6953C295.805 88.4192 297.081 87.5625 298.648 87.125C299.414 86.9426 300.18 86.8879 300.945 86.9609C301.711 86.9973 302.44 87.1614 303.133 87.4531C303.862 87.7083 304.518 88.0911 305.102 88.6016C305.685 89.0754 306.177 89.6589 306.578 90.3516L338.953 146.625L371.328 90.3516C372.167 88.9661 373.315 87.9817 374.773 87.3984C376.268 86.8152 377.818 86.7239 379.422 87.125C380.953 87.5625 382.211 88.4192 383.195 89.6953C384.18 90.9714 384.672 92.4297 384.672 94.0703V166.422ZM78.4219 129.508C79.224 126.956 79.625 124.057 79.625 120.812V114.359C79.625 112.609 79.4245 110.75 79.0234 108.781C78.6224 106.776 77.9661 104.807 77.0547 102.875C76.1797 100.906 75.0495 99.0286 73.6641 97.2422C72.3151 95.4558 70.6562 93.8879 68.6875 92.5391C66.7552 91.1536 64.513 90.0598 61.9609 89.2578C59.4089 88.4192 56.5286 88 53.3203 88H21.1641C19.1953 88 17.0443 88.3645 14.7109 89.0938C12.3776 89.7864 10.2083 90.9167 8.20312 92.4844C6.23438 94.052 4.57552 96.1121 3.22656 98.6641C1.91406 101.216 1.25781 104.315 1.25781 107.961V166.422H15.4766V107.961C15.4766 106.102 15.9688 104.68 16.9531 103.695C17.9375 102.711 19.3776 102.219 21.2734 102.219H53.3203C55.1797 102.219 56.8203 102.529 58.2422 103.148C59.6641 103.732 60.8672 104.552 61.8516 105.609C62.8724 106.667 63.6745 107.943 64.2578 109.438C64.8411 110.932 65.224 112.573 65.4062 114.359V120.812C65.4062 122.635 65.1146 124.276 64.5312 125.734C63.9479 127.156 63.1276 128.378 62.0703 129.398C61.013 130.419 59.737 131.24 58.2422 131.859C56.7839 132.443 55.1432 132.807 53.3203 132.953H21.1641V147.172H53.3203C55.0703 147.172 56.9297 146.971 58.8984 146.57C60.9036 146.169 62.8724 145.531 64.8047 144.656C66.7734 143.781 68.651 142.651 70.4375 141.266C72.224 139.88 73.7917 138.221 75.1406 136.289C76.526 134.32 77.6198 132.06 78.4219 129.508ZM154.328 162.102C154.693 161.227 154.875 160.279 154.875 159.258V107.305H140.656V152.203H115.773C114.06 152.203 112.456 151.93 110.961 151.383C109.503 150.8 108.227 149.979 107.133 148.922C106.039 147.865 105.164 146.607 104.508 145.148C103.888 143.654 103.578 141.977 103.578 140.117V107.305H89.3594V140.117C89.3594 143.325 89.7604 146.206 90.5625 148.758C91.401 151.31 92.4948 153.57 93.8438 155.539C95.1927 157.471 96.7604 159.13 98.5469 160.516C100.37 161.865 102.247 162.995 104.18 163.906C106.112 164.781 108.062 165.419 110.031 165.82C112.036 166.221 113.914 166.422 115.664 166.422H147.82C148.805 166.422 149.716 166.24 150.555 165.875C151.43 165.51 152.177 165.018 152.797 164.398C153.453 163.742 153.964 162.977 154.328 162.102ZM248.172 114.359C248.172 117.604 247.771 120.503 246.969 123.055C246.167 125.607 245.073 127.867 243.688 129.836C242.339 131.768 240.771 133.427 238.984 134.812C237.198 136.198 235.32 137.346 233.352 138.258C231.419 139.133 229.451 139.771 227.445 140.172C225.477 140.573 223.617 140.773 221.867 140.773L251.562 166.422H229.578L199.938 140.773H189.711V126.555H221.867C223.654 126.409 225.276 126.044 226.734 125.461C228.229 124.841 229.505 124.021 230.562 123C231.656 121.979 232.495 120.758 233.078 119.336C233.661 117.878 233.953 116.219 233.953 114.359V105.391C233.953 104.589 233.844 103.987 233.625 103.586C233.443 103.148 233.188 102.839 232.859 102.656C232.568 102.438 232.24 102.31 231.875 102.273C231.547 102.237 231.237 102.219 230.945 102.219H184.023V166.422H169.805V95.1641C169.805 94.1797 169.987 93.25 170.352 92.375C170.716 91.5 171.208 90.7344 171.828 90.0781C172.484 89.4219 173.25 88.9114 174.125 88.5469C175 88.1824 175.948 88 176.969 88H230.945C234.117 88 236.797 88.5833 238.984 89.75C241.172 90.8801 242.94 92.3203 244.289 94.0703C245.674 95.7839 246.659 97.6433 247.242 99.6484C247.862 101.654 248.172 103.531 248.172 105.281V114.359ZM262.555 166.422H276.773V88H262.555V166.422ZM339.219 67.0737H332.316C330.58 67.0737 328.717 66.8748 326.728 66.4768C324.775 66.0791 322.84 65.446 320.922 64.5779C319.005 63.6736 317.143 62.5522 315.334 61.2139C313.562 59.8394 312.006 58.1936 310.668 56.2766C309.329 54.3232 308.244 52.0808 307.412 49.5488C306.617 47.0166 306.219 44.1592 306.219 40.9761V36.4219H320.326V40.9761C320.326 42.8208 320.633 44.4846 321.248 45.9678C321.899 47.4146 322.767 48.6626 323.852 49.7114C324.937 50.7605 326.203 51.5742 327.65 52.1531C329.133 52.6956 330.719 52.9219 332.425 52.9668H339.219H346.013C347.719 52.9668 349.304 52.6956 350.787 52.1531C352.234 51.5742 353.5 50.7605 354.585 49.7114C355.67 48.6626 356.538 47.4146 357.19 45.9678C357.804 44.4846 358.112 42.8208 358.112 40.9761V36.4219H372.219V40.9761C372.219 44.1592 371.821 47.0166 371.025 49.5488C370.193 52.0808 369.108 54.3232 367.77 56.2766C366.431 58.1936 364.876 59.8394 363.104 61.2139C361.295 62.5522 359.432 63.6736 357.515 64.5779C355.598 65.446 353.663 66.0791 351.71 66.4768C349.72 66.8748 347.857 67.0737 346.121 67.0737H339.219ZM320.219 19.4219C320.219 23.2878 317.085 26.4219 313.219 26.4219C309.353 26.4219 306.219 23.2878 306.219 19.4219C306.219 15.5559 309.353 12.4219 313.219 12.4219C317.085 12.4219 320.219 15.5559 320.219 19.4219ZM365.219 26.4219C369.085 26.4219 372.219 23.2878 372.219 19.4219C372.219 15.5559 369.085 12.4219 365.219 12.4219C361.353 12.4219 358.219 15.5559 358.219 19.4219C358.219 23.2878 361.353 26.4219 365.219 26.4219Z" fill="#F5EAEA"/>
</svg>
