<svg width="361" height="175" viewBox="0 0 361 175" fill="none" xmlns="http://www.w3.org/2000/svg">
<path fill-rule="evenodd" clip-rule="evenodd" d="M3.46403 79C2.79203 79 2.1947 78.776 1.67203 78.328C1.22403 77.8053 1.00003 77.208 1.00003 76.536C1.00003 76.2373 1.03737 75.976 1.11203 75.752L26.088 4.29598C26.312 3.47464 26.8347 2.65331 27.656 1.83198C28.4774 1.01064 29.6347 0.599976 31.128 0.599976H55.432C56.9254 0.599976 58.0827 1.01064 58.904 1.83198C59.7254 2.65331 60.248 3.47464 60.472 4.29598L85.448 75.752C85.5227 75.976 85.56 76.2373 85.56 76.536C85.56 77.208 85.2987 77.8053 84.776 78.328C84.328 78.776 83.768 79 83.096 79H62.376C60.9574 79 59.912 78.7013 59.24 78.104C58.6427 77.432 58.232 76.7973 58.008 76.2L55.32 68.808H31.24L28.552 76.2C28.328 76.7973 27.9174 77.432 27.32 78.104C26.7227 78.7013 25.6774 79 24.184 79H3.46403ZM36.952 46.968H49.608L43.224 26.136L36.952 46.968ZM94.7309 79C93.9096 79 93.2002 78.7013 92.6029 78.104C92.0056 77.5067 91.7069 76.7973 91.7069 75.976V3.62398C91.7069 2.80265 92.0056 2.09331 92.6029 1.49598C93.2002 0.898643 93.9096 0.599976 94.7309 0.599976H117.579C118.4 0.599976 119.11 0.898643 119.707 1.49598C120.304 2.09331 120.603 2.80265 120.603 3.62398V75.976C120.603 76.7973 120.304 77.5067 119.707 78.104C119.11 78.7013 118.4 79 117.579 79H94.7309ZM3.18403 173C2.3627 173 1.65337 172.701 1.05603 172.104C0.458701 171.507 0.160034 170.797 0.160034 169.976V97.624C0.160034 96.8027 0.458701 96.0933 1.05603 95.496C1.65337 94.8986 2.3627 94.6 3.18403 94.6H37.12C43.9147 94.6 49.8134 95.608 54.816 97.624C59.8934 99.5653 63.8134 102.589 66.576 106.696C69.4134 110.728 70.832 115.843 70.832 122.04C70.832 128.237 69.4134 133.315 66.576 137.272C63.8134 141.155 59.8934 144.029 54.816 145.896C49.8134 147.688 43.9147 148.584 37.12 148.584H29.28V169.976C29.28 170.797 28.9814 171.507 28.384 172.104C27.7867 172.701 27.0774 173 26.256 173H3.18403ZM28.72 127.864H36.56C37.7547 127.864 38.912 127.416 40.032 126.52C41.152 125.549 41.712 123.981 41.712 121.816C41.712 120.397 41.3387 118.979 40.592 117.56C39.92 116.141 38.576 115.432 36.56 115.432H28.72V127.864ZM99.1768 174.12C95.4435 174.12 91.8968 173.224 88.5368 171.432C85.2514 169.64 82.5634 166.877 80.4728 163.144C78.4568 159.411 77.4488 154.595 77.4488 148.696V117.784C77.4488 116.963 77.7474 116.253 78.3448 115.656C78.9421 115.059 79.6515 114.76 80.4728 114.76H101.865C102.686 114.76 103.395 115.059 103.993 115.656C104.59 116.253 104.889 116.963 104.889 117.784V147.912C104.889 152.019 106.755 154.072 110.489 154.072C112.281 154.072 113.662 153.549 114.633 152.504C115.603 151.459 116.089 149.928 116.089 147.912V117.784C116.089 116.963 116.387 116.253 116.985 115.656C117.582 115.059 118.291 114.76 119.113 114.76H140.393C141.214 114.76 141.923 115.059 142.521 115.656C143.118 116.253 143.417 116.963 143.417 117.784V169.976C143.417 170.797 143.118 171.507 142.521 172.104C141.923 172.701 141.214 173 140.393 173H120.793C119.971 173 119.262 172.701 118.665 172.104C118.067 171.507 117.769 170.797 117.769 169.976V166.28C115.902 169.043 113.326 171.059 110.041 172.328C106.755 173.523 103.134 174.12 99.1768 174.12ZM157.622 173C156.8 173 156.091 172.701 155.494 172.104C154.896 171.507 154.598 170.797 154.598 169.976V97.624C154.598 96.8027 154.896 96.0933 155.494 95.496C156.091 94.8986 156.8 94.6 157.622 94.6H190.774C201.526 94.6 209.926 97.0267 215.974 101.88C222.022 106.733 225.046 113.379 225.046 121.816C225.046 126.819 223.888 131.187 221.574 134.92C219.334 138.579 216.459 141.528 212.95 143.768L226.726 169.304C226.95 169.752 227.062 170.163 227.062 170.536C227.062 171.208 226.8 171.805 226.278 172.328C225.83 172.776 225.27 173 224.598 173H201.638C200.144 173 199.024 172.627 198.278 171.88C197.531 171.133 197.046 170.499 196.822 169.976L187.19 148.584H182.598V169.976C182.598 170.797 182.299 171.507 181.702 172.104C181.104 172.701 180.395 173 179.574 173H157.622ZM182.598 127.304H190.774C192.491 127.304 193.76 126.744 194.582 125.624C195.478 124.429 195.926 123.085 195.926 121.592C195.926 120.099 195.515 118.717 194.694 117.448C193.947 116.104 192.64 115.432 190.774 115.432H182.598V127.304ZM238.45 173C237.628 173 236.919 172.701 236.322 172.104C235.724 171.507 235.426 170.797 235.426 169.976V97.624C235.426 96.8027 235.724 96.0933 236.322 95.496C236.919 94.8986 237.628 94.6 238.45 94.6H261.298C262.119 94.6 262.828 94.8986 263.426 95.496C264.023 96.0933 264.322 96.8027 264.322 97.624V169.976C264.322 170.797 264.023 171.507 263.426 172.104C262.828 172.701 262.119 173 261.298 173H238.45ZM279.684 173C278.863 173 278.153 172.701 277.556 172.104C276.959 171.507 276.66 170.797 276.66 169.976V97.624C276.66 96.8027 276.959 96.0933 277.556 95.496C278.153 94.8986 278.863 94.6 279.684 94.6H297.38C298.873 94.6 299.993 95.0107 300.74 95.832C301.487 96.6533 301.972 97.2507 302.196 97.624L318.436 124.504L334.676 97.624C334.9 97.2507 335.385 96.6533 336.132 95.832C336.879 95.0107 337.999 94.6 339.492 94.6H357.188C358.009 94.6 358.719 94.8986 359.316 95.496C359.913 96.0933 360.212 96.8027 360.212 97.624V169.976C360.212 170.797 359.913 171.507 359.316 172.104C358.719 172.701 358.009 173 357.188 173H336.916C336.095 173 335.385 172.701 334.788 172.104C334.191 171.507 333.892 170.797 333.892 169.976V139.288L326.5 151.384C326.127 151.981 325.604 152.616 324.932 153.288C324.335 153.885 323.476 154.184 322.356 154.184H314.516C313.396 154.184 312.5 153.885 311.828 153.288C311.231 152.616 310.745 151.981 310.372 151.384L302.98 139.288V169.976C302.98 170.797 302.681 171.507 302.084 172.104C301.487 172.701 300.777 173 299.956 173H279.684ZM360.5 50.9651C360.5 51.7894 359.715 52.5013 358.146 53.1008C356.576 53.7003 354.712 54 352.554 54L162.446 54C160.288 54 158.424 53.7003 156.854 53.1008C155.285 52.5013 154.5 51.7894 154.5 50.9651V28.0349C154.5 27.2106 155.285 26.4987 156.854 25.8992C158.424 25.2998 160.288 25 162.446 25L352.554 25C354.712 25 356.576 25.2997 358.146 25.8992C359.715 26.4987 360.5 27.2106 360.5 28.0349V50.9651Z" fill="white"/>
</svg>
